<svg id="e6vQcmCKbxt1" xmlns="http://www.w3.org/2000/svg" xmlns:xlink="http://www.w3.org/1999/xlink" viewBox="0 0 300 300" shape-rendering="geometricPrecision" text-rendering="geometricPrecision" project-id="0cc4df7041d8459592078691986cbe89" export-id="ef28c4e2cbb54ad984167412acdc0257" cached="false"><ellipse rx="30" ry="30" transform="matrix(1.501296 0 0 1.501296 150 150)" paint-order="stroke markers fill" fill="#b80000" stroke="#000" stroke-opacity="0"/><line x1="0" y1="16.741702" x2="0" y2="-16.741701" transform="translate(150 81.501952)" fill="none" stroke="#000" stroke-width="2"/><line x1="0" y1="16.741702" x2="0" y2="-16.741701" transform="matrix(0 1-1 0 218.930422 150)" fill="none" stroke="#000" stroke-width="2"/><line x1="0" y1="16.741702" x2="0" y2="-16.741701" transform="matrix(0 1-1 0 81.069579 150)" fill="none" stroke="#000" stroke-width="2"/><line x1="0" y1="16.741702" x2="0" y2="-16.741701" transform="matrix(-.707107 0.707107-.707107-.707107 93.12295 98.243655)" fill="none" stroke="#000" stroke-width="2"/><line x1="0" y1="16.741702" x2="0" y2="-16.741701" transform="matrix(-.707107 0.707107-.707107-.707107 202.188721 206.659879)" fill="none" stroke="#000" stroke-width="2"/><line x1="0" y1="16.741702" x2="0" y2="-16.741701" transform="translate(150 218.498048)" fill="none" stroke="#000" stroke-width="2"/><line x1="0" y1="16.741702" x2="0" y2="-16.741701" transform="matrix(.707107 0.707107-.707107 0.707107 206.984651 98.243654)" fill="none" stroke="#000" stroke-width="2"/><line x1="0" y1="16.741702" x2="0" y2="-16.741701" transform="matrix(.707107 0.707107-.707107 0.707107 93.01535 206.768464)" fill="none" stroke="#000" stroke-width="2"/></svg>
