<svg xmlns="http://www.w3.org/2000/svg" viewBox="0 0 88.49 88.49" id="linkedin">
  <g>
    <g>
      <path fill="#f9f9f9" d="M85.24 85.31q-20.61-20.05-41.4-40.76-21-21-41.4-41.72l82.9.39Z"></path>
      <rect width="84.49" height="84.49" x="2" y="2" fill="#fff" stroke="#000" stroke-miterlimit="10" stroke-width="4" rx="6.09"></rect>
      <path d="M37.66 66c0-8.62.08-17.24 0-25.85 0-1.63.41-2.14 2-2a23.74 23.74 0 0 0 4.38 0c2.35-.22 3.94.16 2.92 3 .7.47.88 0 1.14-.26a10.63 10.63 0 0 1 11.83-2.57c3.79 1.51 6 5.1 6 9.67v18.05h-8.75c0-3.41 0-6.81-.1-10.22 0-2.35.22-4.71-.32-7-.42-1.8-1.32-3.2-3.16-3.64a4.92 4.92 0 0 0-4.93 1.36 6.37 6.37 0 0 0-1.59 4.7c0 5-.1 9.9-.15 14.84zM23 66c0-8.6.06-17.2 0-25.81 0-1.51.27-2.17 1.95-2a56.23 56.23 0 0 0 6.09 0c1 0 1.43.18 1.42 1.32-.1 8.83-.14 17.67-.19 26.51zm4.8-43.47a5 5 0 0 1 5.3 4.82c.08 2.81-2.3 5-5.44 4.92a4.89 4.89 0 0 1-5.14-4.93c.04-2.8 2.23-4.79 5.28-4.81z"></path>
    </g>
  </g>
</svg>
