<svg width="762" height="700" viewBox="0 0 762 700" fill="none" xmlns="http://www.w3.org/2000/svg">
<rect x="11" y="10" width="738" height="675" rx="23" fill="#CCCCCC"/>
<g filter="url(#filter0_dd_896_5)">
<path d="M20.4953 12.1825C18.5199 10.3196 19.8383 7 22.5536 7H752C753.657 7 755 8.34315 755 10V685C755 686.657 753.657 688 752 688H22.732C19.9935 688 18.6867 684.632 20.7086 682.785L379.413 355.1C380.701 353.924 380.717 351.9 379.448 350.703L20.4953 12.1825Z" fill="#B80000"/>
</g>
<g filter="url(#filter1_dd_896_5)">
<path d="M303.333 365.71C290.502 356.537 290.502 337.463 303.333 328.29L752.194 7.39209C754.179 5.97266 756.939 7.39185 756.939 9.83258L756.939 684.167C756.939 686.608 754.179 688.027 752.194 686.608L303.333 365.71Z" fill="#B80000"/>
<path d="M303.624 365.304C291.072 356.33 291.072 337.671 303.624 328.697L752.485 7.79883C754.139 6.61597 756.439 7.79865 756.439 9.83258L756.439 684.167C756.439 686.201 754.139 687.384 752.485 686.201L303.624 365.304Z" stroke="black"/>
</g>
<defs>
<filter id="filter0_dd_896_5" x="0.0476074" y="0.5" width="754.952" height="699.5" filterUnits="userSpaceOnUse" color-interpolation-filters="sRGB">
<feFlood flood-opacity="0" result="BackgroundImageFix"/>
<feColorMatrix in="SourceAlpha" type="matrix" values="0 0 0 0 0 0 0 0 0 0 0 0 0 0 0 0 0 0 127 0" result="hardAlpha"/>
<feOffset dx="-8" dy="8"/>
<feGaussianBlur stdDeviation="2"/>
<feComposite in2="hardAlpha" operator="out"/>
<feColorMatrix type="matrix" values="0 0 0 0 0 0 0 0 0 0 0 0 0 0 0 0 0 0 0.25 0"/>
<feBlend mode="normal" in2="BackgroundImageFix" result="effect1_dropShadow_896_5"/>
<feColorMatrix in="SourceAlpha" type="matrix" values="0 0 0 0 0 0 0 0 0 0 0 0 0 0 0 0 0 0 127 0" result="hardAlpha"/>
<feOffset dx="-13"/>
<feGaussianBlur stdDeviation="3.25"/>
<feComposite in2="hardAlpha" operator="out"/>
<feColorMatrix type="matrix" values="0 0 0 0 0 0 0 0 0 0 0 0 0 0 0 0 0 0 0.25 0"/>
<feBlend mode="normal" in2="effect1_dropShadow_896_5" result="effect2_dropShadow_896_5"/>
<feBlend mode="normal" in="SourceGraphic" in2="effect2_dropShadow_896_5" result="shape"/>
</filter>
<filter id="filter1_dd_896_5" x="285.71" y="5.82715" width="476.229" height="693.346" filterUnits="userSpaceOnUse" color-interpolation-filters="sRGB">
<feFlood flood-opacity="0" result="BackgroundImageFix"/>
<feColorMatrix in="SourceAlpha" type="matrix" values="0 0 0 0 0 0 0 0 0 0 0 0 0 0 0 0 0 0 127 0" result="hardAlpha"/>
<feMorphology radius="1" operator="dilate" in="SourceAlpha" result="effect1_dropShadow_896_5"/>
<feOffset dy="4"/>
<feGaussianBlur stdDeviation="2"/>
<feComposite in2="hardAlpha" operator="out"/>
<feColorMatrix type="matrix" values="0 0 0 0 0 0 0 0 0 0 0 0 0 0 0 0 0 0 0.78 0"/>
<feBlend mode="normal" in2="BackgroundImageFix" result="effect1_dropShadow_896_5"/>
<feColorMatrix in="SourceAlpha" type="matrix" values="0 0 0 0 0 0 0 0 0 0 0 0 0 0 0 0 0 0 127 0" result="hardAlpha"/>
<feOffset dx="-4" dy="8"/>
<feGaussianBlur stdDeviation="2"/>
<feComposite in2="hardAlpha" operator="out"/>
<feColorMatrix type="matrix" values="0 0 0 0 0 0 0 0 0 0 0 0 0 0 0 0 0 0 0.25 0"/>
<feBlend mode="normal" in2="effect1_dropShadow_896_5" result="effect2_dropShadow_896_5"/>
<feBlend mode="normal" in="SourceGraphic" in2="effect2_dropShadow_896_5" result="shape"/>
</filter>
</defs>
</svg>
