<svg width="1193" height="910" viewBox="0 0 1193 910" fill="none" xmlns="http://www.w3.org/2000/svg">
<path fill-rule="evenodd" clip-rule="evenodd" d="M771.79 826.779C1022.95 858.003 1222.26 882.781 1187.8 317.828C1177.4 254.676 1166.57 202.758 1155.2 160.533C1166.81 203.184 1177.85 255.868 1188.44 320.215C1209.56 666.413 1142.89 791.16 1030.31 828.675C1077.14 834.183 1115.54 840.667 1144.17 847.804C1180.62 856.888 1208.77 899.872 1171.87 906.923C1132.31 914.483 1055.85 906.881 960.55 897.407C865.555 887.962 751.85 876.658 637.346 876.658C531.258 876.658 393.134 885.53 272.603 893.272C46.5727 907.791 -117.589 918.336 107.412 858.944C140.204 853.661 168.538 848.663 194.836 844.024L194.846 844.023L194.851 844.022C216.581 840.189 236.921 836.601 257.237 833.3C151.009 810.524 83.7708 740.059 43.966 592.015C115.172 853.409 273.074 870.704 582.37 811.244C646.831 811.244 710.838 819.202 771.79 826.779ZM43.966 592.015C28.7771 536.258 17.5329 469.393 9.60539 389.798C9.15554 385.281 9.07709 380.227 9.35564 375.696C34.4632 -32.6549 125.54 30.1183 272.359 131.311C357.581 190.049 461.585 261.732 582.37 261.732C707.916 261.732 809.338 171.36 892.99 96.8227C1008.87 -6.42902 1090.64 -79.2954 1155.2 160.533C1090.74 -76.4217 1009.13 -3.69742 893.636 99.2101C809.985 173.747 708.562 264.119 583.016 264.119C462.231 264.119 358.227 192.436 273.005 133.698C126.186 32.5058 35.1094 -30.2675 10.0018 378.084C9.72323 382.614 9.80169 387.668 10.2515 392.185C18.0662 470.648 29.1039 536.739 43.966 592.015Z" fill="#B68F6A" fill-opacity="0.66"/>
</svg>
